# xmcd
#
# Track frame offsets:
# 150
# 15997
# 32063
# 48414
# 64077
# 80758
# 97062
# 113611
# 129257
# 144873
# 160538
# 185245
# 205954
# 218203
# 240052
# 261230
#
# Disc length: 3713 seconds
#
#
# Revision: 0
# Processed by: cddbd v1.5PL3 Copyright (c) Steve Scherf et al.
# Submitted via: FreeRIP 2.00 
#
DISCID=d30e7f10
DTITLE=Various Artist - Flashback - CD1
DYEAR=2004
DGENRE=Acid
TTITLE0=Kentish Man - Easy Lover
TTITLE1=T&F feat Ce Ce Rogers - Stay
TTITLE2=Shortfuse feat Destry - I'd die for you
TTITLE3=Colors - 7 seconds
TTITLE4=Nick Romano - This is your life
TTITLE5=Pierre Hiver - Connected 2004
TTITLE6=KK - Where do we go
TTITLE7=Boogie Pimps - Somebody to love
TTITLE8=Royal Gigolos - California dreamin'
TTITLE9=Scissor Sisters - Comfortably Numb
TTITLE10=Punk Division - Seven nation army
TTITLE11=Bakslash - Tainted love
TTITLE12=Logarhyrthmic - Abracadabra
TTITLE13=Netz - You can do magic
TTITLE14=Funkstar de luxe - Saturday
TTITLE15=R&M - Heart of glass
EXTD=Remixes oldies-but goldies
EXTT0=
EXTT1=
EXTT2=
EXTT3=
EXTT4=
EXTT5=
EXTT6=
EXTT7=
EXTT8=
EXTT9=
EXTT10=
EXTT11=
EXTT12=
EXTT13=
EXTT14=
EXTT15=
PLAYORDER=
